<svg width="36" height="36" viewBox="0 0 36 36" fill="none" xmlns="http://www.w3.org/2000/svg">
<rect width="36" height="36" rx="18" fill="#F2F4F7"/>
<g clip-path="url(#clip0_1013_3390)">
<path d="M17.9977 5.00002L17.8228 5.58787V22.6447L17.9977 22.8173L25.9951 18.1373L17.9977 5.00002Z" fill="#343434"/>
<path d="M17.9977 5.00002L10 18.1373L17.9977 22.8173V14.5384V5.00002Z" fill="#8C8C8C"/>
<path d="M17.9976 24.3164L17.8991 24.4353V30.5112L17.9976 30.7959L26 19.6387L17.9976 24.3164Z" fill="#3C3C3B"/>
<path d="M17.9977 30.7959V24.3164L10 19.6387L17.9977 30.7959Z" fill="#8C8C8C"/>
<path d="M17.9977 22.8173L25.9951 18.1373L17.9977 14.5384V22.8173Z" fill="#141414"/>
<path d="M10 18.1373L17.9977 22.8173V14.5384L10 18.1373Z" fill="#393939"/>
</g>
<defs>
<clipPath id="clip0_1013_3390">
<rect width="16" height="25.7959" fill="white" transform="translate(10 5.00002)"/>
</clipPath>
</defs>
</svg>
