<svg width="36" height="36" viewBox="0 0 36 36" fill="none" xmlns="http://www.w3.org/2000/svg">
<g clip-path="url(#clip0_23_690)">
<path d="M18 36C21.56 36 25.0401 34.9443 28.0002 32.9664C30.9603 30.9886 33.2674 28.1774 34.6298 24.8883C35.9922 21.5992 36.3486 17.98 35.6541 14.4884C34.9596 10.9967 33.2452 7.78942 30.7279 5.27207C28.2105 2.75473 25.0032 1.04039 21.5116 0.345858C18.0199 -0.348676 14.4007 0.00778382 11.1117 1.37016C7.82259 2.73254 5.01137 5.03964 3.03351 7.99973C1.05564 10.9598 -3.91331e-05 14.4399 -3.91331e-05 18C-0.00575438 20.3654 0.455928 22.7086 1.35849 24.8951C2.26105 27.0815 3.5867 29.0681 5.25929 30.7407C6.93189 32.4132 8.91846 33.7389 11.1049 34.6415C13.2913 35.544 15.6346 36.0057 18 36Z" fill="#2775CA"/>
<path d="M22.951 20.8501C22.951 18.2252 21.3761 17.3251 18.2262 16.95C15.9764 16.6503 15.5267 16.05 15.5267 15C15.5267 13.95 16.2769 13.2752 17.7765 13.2752C19.1263 13.2752 19.8772 13.7248 20.2515 14.8501C20.2907 14.9586 20.362 15.0526 20.4559 15.1196C20.5498 15.1866 20.6619 15.2234 20.7772 15.2252H21.9771C22.0465 15.2269 22.1155 15.2144 22.1799 15.1886C22.2444 15.1628 22.3029 15.1242 22.352 15.0751C22.4011 15.026 22.4397 14.9675 22.4655 14.9031C22.4913 14.8386 22.5037 14.7696 22.5021 14.7002V14.6249C22.3569 13.8122 21.9473 13.0701 21.3369 12.5142C20.7266 11.9582 19.9497 11.6193 19.127 11.5503V9.75019C19.127 9.4504 18.9018 9.2252 18.5267 9.1499H17.4014C17.1009 9.1499 16.8764 9.3751 16.8011 9.75019V11.475C14.5513 11.7748 13.1263 13.2752 13.1263 15.1499C13.1263 17.6249 14.6259 18.6003 17.7758 18.9754C19.8764 19.3498 20.5513 19.8002 20.5513 21C20.5513 22.1999 19.5014 23.0253 18.0763 23.0253C16.1263 23.0253 15.4478 22.1999 15.2262 21.0753C15.1509 20.7755 14.9264 20.6249 14.7012 20.6249H13.4275C13.3581 20.6233 13.2891 20.6357 13.2246 20.6615C13.1602 20.6873 13.1017 20.7259 13.0526 20.775C13.0035 20.8241 12.9649 20.8826 12.9391 20.9471C12.9133 21.0115 12.9008 21.0805 12.9025 21.1499V21.2252C13.2023 23.0999 14.4028 24.4504 16.8807 24.8255V26.6249C16.8807 26.9254 17.1052 27.1499 17.4803 27.2252H18.6055C18.9053 27.2252 19.1305 27 19.2051 26.6249V24.8255C21.4556 24.4504 22.9553 22.8747 22.9553 20.8473L22.951 20.8501Z" fill="white"/>
<path d="M14.1767 28.7248C8.32664 26.6248 5.32664 20.0999 7.49903 14.3251C8.62359 11.1752 11.0986 8.77474 14.1767 7.64734C14.4765 7.49745 14.6264 7.27225 14.6264 6.89716V5.85004C14.6264 5.55025 14.4765 5.32506 14.1767 5.24976C14.1014 5.24976 13.9516 5.24976 13.8763 5.32506C6.75027 7.57488 2.85162 15.1498 5.10145 22.2751C5.75505 24.3332 6.89314 26.2043 8.42007 27.7313C9.947 29.2582 11.8181 30.3963 13.8763 31.0499C14.1767 31.1998 14.4765 31.0499 14.5518 30.7501C14.6264 30.6748 14.6264 30.6002 14.6264 30.4503V29.4004C14.6264 29.1752 14.4019 28.8754 14.1767 28.7248ZM22.1268 5.3279C21.8263 5.17801 21.5265 5.3279 21.4519 5.62769C21.3766 5.70299 21.3766 5.77758 21.3766 5.92818V6.97531C21.3766 7.27509 21.6018 7.57488 21.8263 7.72477C27.6764 9.8247 30.6764 16.3497 28.504 22.1252C27.3787 25.2751 24.9037 27.6748 21.8263 28.8029C21.5265 28.9528 21.3766 29.178 21.3766 29.5531V30.6031C21.3766 30.9028 21.5265 31.128 21.8263 31.2026C21.9016 31.2026 22.0515 31.2026 22.1268 31.128C29.2513 28.8754 33.1514 21.2997 30.9037 14.1752C30.2516 12.1078 29.1148 10.2262 27.5881 8.68721C26.0614 7.14824 24.1889 5.99648 22.1268 5.3279Z" fill="white"/>
</g>
<defs>
<clipPath id="clip0_23_690">
<rect width="36" height="36" fill="white"/>
</clipPath>
</defs>
</svg>
