<svg width="36" height="36" viewBox="0 0 36 36" fill="none" xmlns="http://www.w3.org/2000/svg">
<circle cx="18" cy="18" r="18" fill="white"/>
<path d="M29.3542 7.55517L28.3657 8.54364C30.7244 11.123 32.0324 14.4916 32.0324 17.9868C32.0324 21.482 30.7244 24.8506 28.3657 27.43L29.3542 28.4184C31.9773 25.5732 33.4336 21.8451 33.4336 17.9753C33.4336 14.1054 31.9773 10.3773 29.3542 7.5321V7.55517Z" fill="#5A5564"/>
<path d="M8.56672 7.64086C11.1461 5.28221 14.5147 3.97422 18.0099 3.97422C21.5051 3.97422 24.8737 5.28221 27.453 7.64086L28.4415 6.65239C25.5963 4.02933 21.8682 2.57303 17.9984 2.57303C14.1285 2.57303 10.4004 4.02933 7.55519 6.65239L8.56672 7.64086Z" fill="#5A5564"/>
<path d="M7.64086 27.4399C5.28501 24.8611 3.97874 21.4945 3.97874 18.0016C3.97874 14.5088 5.28501 11.1422 7.64086 8.56342L6.65239 7.57495C4.02933 10.4202 2.57303 14.1483 2.57303 18.0181C2.57303 21.8879 4.02933 25.6161 6.65239 28.4613L7.64086 27.4399Z" fill="#5A5564"/>
<path d="M27.4399 28.3525C24.8605 30.7112 21.4919 32.0192 17.9967 32.0192C14.5015 32.0192 11.1329 30.7112 8.55353 28.3525L7.56506 29.341C10.4103 31.9641 14.1384 33.4204 18.0082 33.4204C21.8781 33.4204 25.6062 31.9641 28.4514 29.341L27.4399 28.3525Z" fill="#5A5564"/>
<path d="M24.2405 14.7018C24.0428 12.6392 22.2636 11.9473 20.0132 11.7364V8.89621H18.2735V11.6837C17.8155 11.6837 17.3476 11.6837 16.883 11.6837V8.89621H15.1565V11.7562H11.6277V13.6178C11.6277 13.6178 12.9127 13.5947 12.8929 13.6178C13.1246 13.5923 13.3572 13.6578 13.5416 13.8003C13.7259 13.9429 13.8478 14.1515 13.8814 14.3822V22.2109C13.8764 22.2922 13.8552 22.3717 13.819 22.4447C13.7828 22.5178 13.7323 22.5828 13.6705 22.6359C13.6099 22.6901 13.539 22.7314 13.462 22.7575C13.3849 22.7835 13.3035 22.7937 13.2224 22.7875C13.2455 22.8072 11.9572 22.7875 11.9572 22.7875L11.6277 24.8666H15.1236V27.7726H16.8633V24.9094H18.2537V27.7595H19.9967V24.8863C22.9358 24.7084 24.9852 23.9835 25.2422 21.2323C25.4498 19.0181 24.4086 18.0297 22.7447 17.631C23.7562 17.1334 24.3822 16.2109 24.2405 14.7018ZM21.8023 20.8896C21.8023 23.0511 18.0989 22.804 16.9193 22.804V18.9687C18.0989 18.972 21.8023 18.6326 21.8023 20.8896ZM20.9951 15.486C20.9951 17.4629 17.9045 17.2224 16.9226 17.2224V13.7364C17.9045 13.7364 20.9951 13.4267 20.9951 15.486Z" fill="#F09242"/>
<path d="M17.9967 36C14.4369 35.9993 10.9573 34.9432 7.99769 32.9651C5.03811 30.987 2.73151 28.1757 1.36955 24.8868C0.00757707 21.5978 -0.348605 17.9789 0.346034 14.4876C1.04067 10.9962 2.75494 7.78923 5.27208 5.27208C7.78923 2.75494 10.9962 1.04067 14.4876 0.346034C17.9789 -0.348605 21.5978 0.00757707 24.8868 1.36955C28.1757 2.73151 30.987 5.03811 32.9651 7.99769C34.9432 10.9573 35.9993 14.4369 36 17.9967C36.0004 20.3611 35.5351 22.7023 34.6305 24.8868C33.7259 27.0712 32.3998 29.0561 30.7279 30.7279C29.0561 32.3998 27.0712 33.7259 24.8868 34.6305C22.7023 35.5351 20.3611 36.0004 17.9967 36ZM17.9967 1.40363C14.7171 1.40624 11.5118 2.38107 8.78603 4.20491C6.06027 6.02875 3.93639 8.61972 2.68282 11.6503C1.42926 14.681 1.10229 18.0152 1.74323 21.2316C2.38418 24.448 3.96427 27.4023 6.2838 29.7209C8.60333 32.0395 11.5582 33.6184 14.7748 34.2581C17.9915 34.8977 21.3256 34.5694 24.3557 33.3147C27.3859 32.0599 29.976 29.935 31.7988 27.2085C33.6215 24.482 34.5951 21.2764 34.5964 17.9967C34.5972 15.8169 34.1684 13.6582 33.3344 11.6443C32.5005 9.63028 31.2777 7.80044 29.736 6.25937C28.1943 4.7183 26.364 3.49623 24.3497 2.66305C22.3353 1.82986 20.1765 1.4019 17.9967 1.40363Z" fill="#282138"/>
</svg>
