<svg width="933" height="227" viewBox="0 0 933 227" fill="none" xmlns="http://www.w3.org/2000/svg">
<path d="M204.5 0H149L0 173H56L204.5 0Z" fill="#041607"/>
<path d="M186.5 183.5H63.5L138 227H186.5V183.5Z" fill="#041607"/>
<path d="M186.5 160.5V57L97.5 160.5H186.5Z" fill="#6AF6F6"/>
<path d="M897.113 57.5H925.614C928.037 57.5 929.758 58.075 930.779 59.225C931.926 60.2472 932.5 61.9722 932.5 64.4V138.767C932.5 142.856 932.309 146.689 931.926 150.267C931.671 153.717 930.715 157.806 929.057 162.533L919.493 188.6C918.855 190.517 917.899 192.178 916.624 193.583C915.476 194.861 913.882 195.5 911.842 195.5H886.402C884.361 195.5 882.512 195.053 880.854 194.158C879.197 193.264 878.113 191.794 877.603 189.75L868.804 158.508C868.421 157.231 867.911 156.4 867.274 156.017C866.763 155.506 866.126 155.25 865.361 155.25H863.639C862.874 155.25 862.173 155.506 861.535 156.017C861.025 156.4 860.579 157.231 860.196 158.508L851.206 189.75C850.696 191.667 849.74 193.136 848.337 194.158C846.934 195.053 845.213 195.5 843.172 195.5H817.923C815.883 195.5 814.098 194.861 812.567 193.583C811.165 192.306 810.145 190.644 809.507 188.6L799.943 162.15C798.285 157.422 797.265 153.333 796.883 149.883C796.628 146.306 796.5 142.472 796.5 138.383V64.4C796.5 61.9722 797.01 60.2472 798.03 59.225C799.178 58.075 800.963 57.5 803.386 57.5H832.843C835.266 57.5 836.988 58.075 838.008 59.225C839.155 60.2472 839.729 61.9722 839.729 64.4V134.933L850.823 110.783C851.844 108.611 853.183 107.078 854.84 106.183C856.498 105.289 858.538 104.842 860.961 104.842H868.995C871.418 104.842 873.458 105.289 875.116 106.183C876.774 107.078 878.113 108.611 879.133 110.783L890.227 134.933V64.4C890.227 61.9722 890.737 60.2472 891.757 59.225C892.905 58.075 894.69 57.5 897.113 57.5Z" fill="black"/>
<path d="M708.304 97.75L699.312 126.883H729.349L720.357 97.75C719.847 96.6 719.273 95.7694 718.635 95.2583C718.125 94.7472 717.487 94.4917 716.722 94.4917H711.939C711.174 94.4917 710.472 94.7472 709.834 95.2583C709.324 95.7694 708.814 96.6 708.304 97.75ZM697.399 188.6C697.399 191.028 696.825 192.817 695.677 193.967C694.656 194.989 692.935 195.5 690.511 195.5H662.387C659.964 195.5 658.178 194.989 657.031 193.967C656.01 192.817 655.5 191.028 655.5 188.6V138C655.5 134.167 656.074 129.758 657.222 124.775C658.497 119.792 660.41 113.978 662.961 107.333L679.606 63.825C680.371 61.6528 681.519 60.0555 683.05 59.0333C684.708 58.0111 686.812 57.5 689.363 57.5H740.828C743.251 57.5 745.228 58.0111 746.759 59.0333C748.417 60.0555 749.629 61.6528 750.394 63.825L767.039 107.333C769.59 113.978 771.439 119.792 772.587 124.775C773.862 129.758 774.5 134.167 774.5 138V188.6C774.5 191.028 773.926 192.817 772.778 193.967C771.758 194.989 770.036 195.5 767.613 195.5H738.723C736.173 195.5 734.259 194.989 732.984 193.967C731.836 192.817 731.262 191.028 731.262 188.6V161.767H697.399V188.6Z" fill="black"/>
<path d="M559.838 92V116.533H574.219C577.543 116.533 579.781 115.703 580.931 114.042C582.082 112.253 582.657 110.081 582.657 107.525V101.008C582.657 98.4528 582.082 96.3444 580.931 94.6833C579.781 92.8944 577.543 92 574.219 92H559.838ZM552.934 195.5H523.403C520.974 195.5 519.185 194.989 518.034 193.967C517.011 192.817 516.5 191.028 516.5 188.6V64.4C516.5 61.9722 517.011 60.2472 518.034 59.225C519.185 58.075 520.974 57.5 523.403 57.5H587.259C601.577 57.5 611.421 60.5028 616.79 66.5083C622.287 72.3861 625.036 80.0528 625.036 89.5083V98.325C625.036 103.692 624.205 108.292 622.543 112.125C621.009 115.831 618.26 118.514 614.297 120.175C621.2 120.942 626.761 123.753 630.98 128.608C635.327 133.464 637.5 139.917 637.5 147.967V188.6C637.5 191.028 636.925 192.817 635.774 193.967C634.751 194.989 633.026 195.5 630.597 195.5H600.874C598.445 195.5 596.655 194.989 595.505 193.967C594.482 192.817 593.971 191.028 593.971 188.6V159.275C593.971 156.464 593.395 154.419 592.245 153.142C591.222 151.736 589.368 151.033 586.684 151.033H559.838V188.6C559.838 191.028 559.262 192.817 558.112 193.967C557.089 194.989 555.363 195.5 552.934 195.5Z" fill="black"/>
<path d="M445.208 195.5H380.421C377.986 195.5 376.191 194.989 375.038 193.967C374.013 192.817 373.5 191.028 373.5 188.6V64.4C373.5 61.9722 374.013 60.2472 375.038 59.225C376.191 58.075 377.986 57.5 380.421 57.5H445.208C461.228 57.5 473.083 60.6944 480.773 67.0833C488.591 73.4722 492.5 83.3111 492.5 96.6V156.4C492.5 169.689 488.591 179.528 480.773 185.917C473.083 192.306 461.228 195.5 445.208 195.5ZM417.14 94.1083V159.275H440.017C443.093 159.275 445.336 158.508 446.746 156.975C448.284 155.442 449.053 153.078 449.053 149.883V103.308C449.053 100.114 448.284 97.8139 446.746 96.4083C445.336 94.875 443.093 94.1083 440.017 94.1083H417.14Z" fill="black"/>
<path d="M304.415 163.492H272.197C259.869 163.492 250.972 160.936 245.507 155.825C240.169 150.586 237.5 142.536 237.5 131.675V64.4C237.5 61.9722 238.008 60.2472 239.025 59.225C240.169 58.075 241.948 57.5 244.363 57.5H273.912C276.327 57.5 278.043 58.075 279.06 59.225C280.204 60.2472 280.776 61.9722 280.776 64.4V116.917C280.776 118.961 281.284 120.558 282.301 121.708C283.445 122.858 284.906 123.433 286.685 123.433H304.415V64.4C304.415 61.9722 304.923 60.2472 305.94 59.225C307.084 58.075 308.863 57.5 311.278 57.5H340.637C343.052 57.5 344.767 58.075 345.784 59.225C346.928 60.2472 347.5 61.9722 347.5 64.4V188.6C347.5 191.028 346.928 192.817 345.784 193.967C344.767 194.989 343.052 195.5 340.637 195.5H311.278C308.863 195.5 307.084 194.989 305.94 193.967C304.923 192.817 304.415 191.028 304.415 188.6V163.492Z" fill="#6AF6F6"/>
</svg>
